<svg width="277.5" height="277.5" fill="none" version="1.1" viewBox="0 0 277.5 277.5" xmlns="http://www.w3.org/2000/svg">
	<g id="Keyboard" transform="translate(1.22e-4)">
		<path d="m277 202c-9.849 0-19.602 1.94-28.701 5.709-9.1 3.769-17.368 9.294-24.332 16.258s-12.489 15.232-16.258 24.332c-3.769 9.099-5.709 18.852-5.709 28.701h75z" fill="#c4c4c4" stroke="#000"/>
		<g id="Enter">
			<mask id="path-2-outside-1" x="80" y="0" width="197" height="100" fill="#000000" maskUnits="userSpaceOnUse">
				<rect x="80" width="197" height="100" fill="#fff"/>
				<path d="m276 1c-36.114 0-71.873 7.1131-105.24 20.933-33.364 13.82-63.68 34.076-89.216 59.612l16.296 16.296c23.396-23.396 51.171-41.955 81.74-54.617 30.568-12.662 63.331-19.179 96.418-19.179z"/>
			</mask>
			<path d="m276 1c-36.114 0-71.873 7.1131-105.24 20.933-33.364 13.82-63.68 34.076-89.216 59.612l16.296 16.296c23.396-23.396 51.171-41.955 81.74-54.617 30.568-12.662 63.331-19.179 96.418-19.179z" fill="#c4c4c4"/>
			<path d="m276 1c-36.114 0-71.873 7.1131-105.24 20.933-33.364 13.82-63.68 34.076-89.216 59.612l16.296 16.296c23.396-23.396 51.171-41.955 81.74-54.617 30.568-12.662 63.331-19.179 96.418-19.179z" mask="url(#path-2-outside-1)" stroke="#000" stroke-width="2"/>
			<path id="ENTER" d="m167.04 31.919h-2.812v1.9043h3.3v1.1768h-4.765v-7.1094h4.756v1.1865h-3.291v1.6944h2.812zm7.129 3.0811h-1.465l-2.851-4.6777v4.6777h-1.465v-7.1094h1.465l2.856 4.6875v-4.6875h1.46zm6.484-5.9229h-2.177v5.9229h-1.465v-5.9229h-2.149v-1.1865h5.791zm5.117 2.8418h-2.812v1.9043h3.301v1.1768h-4.766v-7.1094h4.756v1.1865h-3.291v1.6944h2.812zm3.98 0.4786h-1.167v2.6025h-1.465v-7.1094h2.642c0.84 0 1.487 0.1872 1.943 0.5615 0.456 0.3744 0.684 0.9034 0.684 1.587 0 0.485-0.106 0.8903-0.318 1.2158-0.208 0.3222-0.525 0.5794-0.952 0.7715l1.538 2.9052v0.0684h-1.572zm-1.167-1.1866h1.182c0.367 0 0.652-0.0927 0.854-0.2783 0.202-0.1888 0.303-0.4476 0.303-0.7764 0-0.3352-0.096-0.5989-0.288-0.791-0.189-0.192-0.48-0.2881-0.874-0.2881h-1.177z" fill="#000"/>
		</g>
		<g id="Return">
			<mask id="path-4-outside-2" x="-0.00012207" y="80" width="100" height="197" fill="#000000" maskUnits="userSpaceOnUse">
				<rect x="-.00012207" y="80" width="100" height="197" fill="#fff"/>
				<path d="m81.546 81.546c-25.536 25.536-45.792 55.852-59.612 89.216-13.82 33.365-20.933 69.125-20.933 105.24h23.047c-1e-4 -33.087 6.5169-65.85 19.179-96.418 12.662-30.569 31.221-58.344 54.617-81.74z"/>
			</mask>
			<path d="m81.546 81.546c-25.536 25.536-45.792 55.852-59.612 89.216-13.82 33.365-20.933 69.125-20.933 105.24h23.047c-1e-4 -33.087 6.5169-65.85 19.179-96.418 12.662-30.569 31.221-58.344 54.617-81.74z" fill="#c4c4c4"/>
			<path d="m81.546 81.546c-25.536 25.536-45.792 55.852-59.612 89.216-13.82 33.365-20.933 69.125-20.933 105.24h23.047c-1e-4 -33.087 6.5169-65.85 19.179-96.418 12.662-30.569 31.221-58.344 54.617-81.74z" mask="url(#path-4-outside-2)" stroke="#000" stroke-width="2"/>
			<path d="m23 176 5 2.887v-5.774zm18.241-0.5h-13.741v1h13.741z" fill="#000"/>
		</g>
		<g id="A">
			<mask id="path-6-outside-3" x="24" y="235" width="67" height="43" fill="#000000" maskUnits="userSpaceOnUse">
				<rect x="24" y="235" width="67" height="43" fill="#fff"/>
				<path d="m28.096 237.12c-2.0607 13.01-3.0958 26.163-3.0958 39.336h62.386c0-9.905 0.7783-19.794 2.3277-29.577z"/>
			</mask>
			<path d="m28.096 237.12c-2.0607 13.01-3.0958 26.163-3.0958 39.336h62.386c0-9.905 0.7783-19.794 2.3277-29.577z" fill="#c4c4c4"/>
			<path d="m28.096 237.12c-2.0607 13.01-3.0958 26.163-3.0958 39.336h62.386c0-9.905 0.7783-19.794 2.3277-29.577z" mask="url(#path-6-outside-3)" stroke="#000" stroke-width="2"/>
			<path d="m57.94 263.22h-4.8798l-0.9278 2.783h-2.9594l5.0283-13.508h2.5791l5.0561 13.508h-2.9594zm-4.1284-2.255h3.377l-1.6978-5.056z" fill="#000"/>
		</g>
		<g id="B">
			<mask id="path-8-outside-4" x="26" y="197" width="72" height="52" fill="#000000" maskUnits="userSpaceOnUse">
				<rect x="26" y="197" width="72" height="52" fill="#fff"/>
				<path d="m37.307 198.75c-4.0707 12.528-7.1506 25.357-9.2113 38.368l61.618 9.759c1.5495-9.783 3.8653-19.428 6.926-28.848z"/>
			</mask>
			<path d="m37.307 198.75c-4.0707 12.528-7.1506 25.357-9.2113 38.368l61.618 9.759c1.5495-9.783 3.8653-19.428 6.926-28.848z" fill="#c4c4c4"/>
			<path d="m37.307 198.75c-4.0707 12.528-7.1506 25.357-9.2113 38.368l61.618 9.759c1.5495-9.783 3.8653-19.428 6.926-28.848z" mask="url(#path-8-outside-4)" stroke="#000" stroke-width="2"/>
			<path d="m55.639 231v-13.508h4.7314c1.639 0 2.8822 0.316 3.7295 0.946 0.8473 0.625 1.271 1.544 1.271 2.756 0 0.662-0.1701 1.246-0.5102 1.753-0.3402 0.501-0.8134 0.869-1.4195 1.104 0.6927 0.173 1.237 0.523 1.6328 1.049 0.402 0.525 0.6031 1.169 0.6031 1.929 0 1.299-0.4144 2.283-1.2432 2.95-0.8288 0.668-2.0101 1.009-3.544 1.021zm2.7832-5.882v3.646h2.3843c0.6556 0 1.1658-0.154 1.5307-0.464 0.3711-0.315 0.5567-0.748 0.5567-1.299 0-1.237-0.6402-1.864-1.9205-1.883zm0-1.967h2.0595c1.404-0.024 2.106-0.584 2.106-1.679 0-0.612-0.1794-1.051-0.5381-1.317-0.3525-0.272-0.9123-0.408-1.6792-0.408h-1.9482z" fill="#000"/>
		</g>
		<g id="C">
			<mask id="path-10-outside-5" x="36" y="160" width="74" height="60" fill="#000000" maskUnits="userSpaceOnUse">
				<rect x="36" y="160" width="74" height="60" fill="#fff"/>
				<path d="m52.407 162.3c-5.9804 11.737-11.029 23.926-15.1 36.454l59.333 19.279c3.0607-9.42 6.8568-18.585 11.354-27.41z"/>
			</mask>
			<path d="m52.407 162.3c-5.9804 11.737-11.029 23.926-15.1 36.454l59.333 19.279c3.0607-9.42 6.8568-18.585 11.354-27.41z" fill="#c4c4c4"/>
			<path d="m52.407 162.3c-5.9804 11.737-11.029 23.926-15.1 36.454l59.333 19.279c3.0607-9.42 6.8568-18.585 11.354-27.41z" mask="url(#path-10-outside-5)" stroke="#000" stroke-width="2"/>
			<path d="m76.094 191.5c-0.1051 1.454-0.6432 2.598-1.6142 3.433-0.9649 0.835-2.239 1.253-3.8223 1.253-1.7318 0-3.0955-0.582-4.0913-1.745-0.9896-1.169-1.4844-2.77-1.4844-4.805v-0.826c0-1.299 0.2289-2.443 0.6866-3.433 0.4576-0.989 1.1101-1.747 1.9575-2.273 0.8535-0.531 1.8431-0.797 2.9687-0.797 1.5586 0 2.8142 0.417 3.7666 1.252 0.9525 0.835 1.503 2.007 1.6514 3.516h-2.7832c-0.068-0.872-0.3123-1.503-0.7329-1.892-0.4144-0.396-1.0484-0.594-1.9019-0.594-0.9277 0-1.6235 0.334-2.0874 1.002-0.4577 0.662-0.6927 1.691-0.7051 3.089v1.021c0 1.459 0.2196 2.526 0.6587 3.2 0.4453 0.675 1.1442 1.012 2.0967 1.012 0.8597 0 1.4999-0.195 1.9204-0.585 0.4268-0.396 0.6711-1.005 0.7329-1.828z" fill="#000"/>
		</g>
		<g id="D">
			<mask id="path-12-outside-6" x="51" y="127" width="74" height="65" fill="#000000" maskUnits="userSpaceOnUse">
				<rect x="51" y="127" width="74" height="65" fill="#fff"/>
				<path d="m73.024 128.65c-7.7428 10.658-14.636 21.907-20.617 33.644l55.587 28.323c4.496-8.825 9.68-17.284 15.501-25.297z"/>
			</mask>
			<path d="m73.024 128.65c-7.7428 10.658-14.636 21.907-20.617 33.644l55.587 28.323c4.496-8.825 9.68-17.284 15.501-25.297z" fill="#c4c4c4"/>
			<path d="m73.024 128.65c-7.7428 10.658-14.636 21.907-20.617 33.644l55.587 28.323c4.496-8.825 9.68-17.284 15.501-25.297z" mask="url(#path-12-outside-6)" stroke="#000" stroke-width="2"/>
			<path d="m82.527 166v-13.508h4.1563c1.1875 0 2.2482 0.269 3.1821 0.807 0.9401 0.532 1.673 1.293 2.1988 2.283 0.5257 0.983 0.7885 2.102 0.7885 3.358v0.622c0 1.255-0.2597 2.371-0.7793 3.349-0.5133 0.977-1.24 1.735-2.1801 2.273s-2.0009 0.81-3.1822 0.816zm2.7832-11.253v9.017h1.3453c1.0885 0 1.9204-0.355 2.4956-1.067 0.5752-0.711 0.8689-1.728 0.8813-3.052v-0.714c0-1.373-0.2845-2.412-0.8535-3.118-0.569-0.711-1.4009-1.066-2.4956-1.066z" fill="#000"/>
		</g>
		<g id="E">
			<mask id="path-14-outside-7" x="71" y="97" width="74" height="70" fill="#000000" maskUnits="userSpaceOnUse">
				<rect x="71" y="97" width="74" height="70" fill="#fff"/>
				<path d="m98.65 98.649c-9.3147 9.3146-17.883 19.347-25.626 30.004l50.471 36.67c5.822-8.013 12.265-15.556 19.268-22.56z"/>
			</mask>
			<path d="m98.65 98.649c-9.3147 9.3146-17.883 19.347-25.626 30.004l50.471 36.67c5.822-8.013 12.265-15.556 19.268-22.56z" fill="#c4c4c4"/>
			<path d="m98.65 98.649c-9.3147 9.3146-17.883 19.347-25.626 30.004l50.471 36.67c5.822-8.013 12.265-15.556 19.268-22.56z" mask="url(#path-14-outside-7)" stroke="#000" stroke-width="2"/>
			<path d="m111.49 131.15h-5.343v3.618h6.271v2.236h-9.055v-13.508h9.036v2.255h-6.252v3.219h5.343z" fill="#000"/>
		</g>
		<g id="G">
			<mask id="path-16-outside-8" x="127" y="51" width="65" height="74" fill="#000000" maskUnits="userSpaceOnUse">
				<rect x="127" y="51" width="65" height="74" fill="#fff"/>
				<path d="m162.3 52.407c-11.737 5.9804-22.986 12.874-33.644 20.617l36.67 50.471c8.013-5.821 16.472-11.005 25.297-15.501z"/>
			</mask>
			<path d="m162.3 52.407c-11.737 5.9804-22.986 12.874-33.644 20.617l36.67 50.471c8.013-5.821 16.472-11.005 25.297-15.501z" fill="#c4c4c4"/>
			<path d="m162.3 52.407c-11.737 5.9804-22.986 12.874-33.644 20.617l36.67 50.471c8.013-5.821 16.472-11.005 25.297-15.501z" mask="url(#path-16-outside-8)" stroke="#000" stroke-width="2"/>
			<path d="m167.92 91.293c-0.501 0.5999-1.209 1.0669-2.125 1.4008-0.915 0.3278-1.929 0.4917-3.043 0.4917-1.168 0-2.195-0.2535-3.08-0.7607-0.878-0.5133-1.558-1.2555-2.041-2.2266-0.476-0.971-0.72-2.1121-0.733-3.4233v-0.9185c0-1.3483 0.226-2.5141 0.678-3.4975 0.457-0.9896 1.113-1.7442 1.967-2.2637 0.859-0.5257 1.864-0.7886 3.015-0.7886 1.602 0 2.854 0.3835 3.757 1.1504 0.903 0.7608 1.438 1.871 1.605 3.3306h-2.709c-0.124-0.7731-0.399-1.339-0.826-1.6978-0.42-0.3587-1.002-0.538-1.744-0.538-0.946 0-1.667 0.3556-2.161 1.0669-0.495 0.7112-0.746 1.7688-0.752 3.1728v0.8628c0 1.4163 0.269 2.4863 0.807 3.21 0.538 0.7236 1.327 1.0854 2.366 1.0854 1.045 0 1.79-0.2226 2.236-0.668v-2.3286h-2.533v-2.0503h5.316z" fill="#000"/>
		</g>
		<g id="H">
			<mask id="path-18-outside-9" x="160" y="36" width="60" height="74" fill="#000000" maskUnits="userSpaceOnUse">
				<rect x="160" y="36" width="60" height="74" fill="#fff"/>
				<path d="m198.75 37.307c-12.528 4.0707-24.717 9.1195-36.454 15.1l28.323 55.587c8.825-4.497 17.99-8.2931 27.41-11.354z"/>
			</mask>
			<path d="m198.75 37.307c-12.528 4.0707-24.717 9.1195-36.454 15.1l28.323 55.587c8.825-4.497 17.99-8.2931 27.41-11.354z" fill="#c4c4c4"/>
			<path d="m198.75 37.307c-12.528 4.0707-24.717 9.1195-36.454 15.1l28.323 55.587c8.825-4.497 17.99-8.2931 27.41-11.354z" mask="url(#path-18-outside-9)" stroke="#000" stroke-width="2"/>
			<path d="m198.48 77h-2.783v-5.7891h-5.428v5.7891h-2.783v-13.508h2.783v5.4736h5.428v-5.4736h2.783z" fill="#000"/>
		</g>
		<g id="F">
			<mask id="path-20-outside-10" x="97" y="71" width="70" height="74" fill="#000000" maskUnits="userSpaceOnUse">
				<rect x="97" y="71" width="70" height="74" fill="#fff"/>
				<path d="m128.65 73.024c-10.658 7.7429-20.69 16.311-30.005 25.626l44.114 44.113c7.004-7.003 14.547-13.446 22.56-19.268z"/>
			</mask>
			<path d="m128.65 73.024c-10.658 7.7429-20.69 16.311-30.005 25.626l44.114 44.113c7.004-7.003 14.547-13.446 22.56-19.268z" fill="#c4c4c4"/>
			<path d="m128.65 73.024c-10.658 7.7429-20.69 16.311-30.005 25.626l44.114 44.113c7.004-7.003 14.547-13.446 22.56-19.268z" mask="url(#path-20-outside-10)" stroke="#000" stroke-width="2"/>
			<path d="m136.63 106.48h-5.343v5.52h-2.784v-13.508h8.795v2.2548h-6.011v3.488h5.343z" fill="#000"/>
		</g>
		<g id="I">
			<mask id="path-22-outside-11" x="197" y="26" width="52" height="72" fill="#000000" maskUnits="userSpaceOnUse">
				<rect x="197" y="26" width="52" height="72" fill="#fff"/>
				<path d="m237.12 28.096c-13.011 2.0607-25.84 5.1406-38.368 9.2113l19.279 59.333c9.42-3.0608 19.065-5.3765 28.848-6.926z"/>
			</mask>
			<path d="m237.12 28.096c-13.011 2.0607-25.84 5.1406-38.368 9.2113l19.279 59.333c9.42-3.0608 19.065-5.3765 28.848-6.926z" fill="#c4c4c4"/>
			<path d="m237.12 28.096c-13.011 2.0607-25.84 5.1406-38.368 9.2113l19.279 59.333c9.42-3.0608 19.065-5.3765 28.848-6.926z" mask="url(#path-22-outside-11)" stroke="#000" stroke-width="2"/>
			<path d="m226.39 65h-2.784v-13.508h2.784z" fill="#000"/>
		</g>
		<g id="J">
			<mask id="path-24-outside-12" x="235" y="24" width="43" height="67" fill="#000000" maskUnits="userSpaceOnUse">
				<rect x="235" y="24" width="43" height="67" fill="#fff"/>
				<path d="m276.46 25c-13.173 0-26.325 1.0351-39.336 3.0958l9.759 61.618c9.783-1.5494 19.672-2.3277 29.577-2.3277z"/>
			</mask>
			<path d="m276.46 25c-13.173 0-26.325 1.0351-39.336 3.0958l9.759 61.618c9.783-1.5494 19.672-2.3277 29.577-2.3277z" fill="#c4c4c4"/>
			<path d="m276.46 25c-13.173 0-26.325 1.0351-39.336 3.0958l9.759 61.618c9.783-1.5494 19.672-2.3277 29.577-2.3277z" mask="url(#path-24-outside-12)" stroke="#000" stroke-width="2"/>
			<path d="m260.84 46.492h2.783v9.3516c0 0.8597-0.191 1.6204-0.575 2.2822-0.377 0.6556-0.912 1.1627-1.605 1.5215-0.692 0.3587-1.475 0.538-2.347 0.538-1.429 0-2.542-0.3618-3.34-1.0854-0.798-0.7298-1.197-1.7596-1.197-3.0894h2.802c0 0.6618 0.139 1.1504 0.418 1.4659 0.278 0.3154 0.717 0.4731 1.317 0.4731 0.532 0 0.956-0.1824 1.271-0.5474 0.316-0.3649 0.473-0.8844 0.473-1.5585z" fill="#000"/>
		</g>
		<g id="S">
			<mask id="path-26-outside-13" x="242" y="87" width="36" height="67" fill="#000000" maskUnits="userSpaceOnUse">
				<rect x="242" y="87" width="36" height="67" fill="#fff"/>
				<path d="m276.5 88c-10.974 0-21.926 0.9582-32.733 2.8638l10.909 61.87c7.206-1.271 14.508-1.91 21.824-1.91z"/>
			</mask>
			<path d="m276.5 88c-10.974 0-21.926 0.9582-32.733 2.8638l10.909 61.87c7.206-1.271 14.508-1.91 21.824-1.91z" fill="#c4c4c4"/>
			<path d="m276.5 88c-10.974 0-21.926 0.9582-32.733 2.8638l10.909 61.87c7.206-1.271 14.508-1.91 21.824-1.91z" mask="url(#path-26-outside-13)" stroke="#000" stroke-width="2"/>
			<path d="m265.37 119.46c0-0.526-0.186-0.928-0.557-1.206-0.371-0.285-1.039-0.581-2.004-0.891-0.965-0.315-1.729-0.624-2.291-0.927-1.534-0.829-2.301-1.946-2.301-3.349 0-0.73 0.204-1.38 0.612-1.949 0.415-0.575 1.005-1.023 1.772-1.345 0.773-0.322 1.639-0.482 2.598-0.482 0.965 0 1.824 0.176 2.579 0.528 0.754 0.347 1.339 0.839 1.753 1.476 0.421 0.637 0.631 1.36 0.631 2.17h-2.783c0-0.618-0.195-1.097-0.584-1.438-0.39-0.346-0.937-0.519-1.643-0.519-0.68 0-1.209 0.145-1.586 0.436-0.377 0.284-0.566 0.662-0.566 1.132 0 0.439 0.22 0.807 0.659 1.104 0.445 0.297 1.098 0.575 1.957 0.835 1.584 0.476 2.737 1.067 3.461 1.772 0.723 0.705 1.085 1.583 1.085 2.635 0 1.168-0.442 2.087-1.326 2.755-0.885 0.662-2.075 0.993-3.572 0.993-1.039 0-1.986-0.189-2.839-0.566-0.854-0.384-1.506-0.906-1.958-1.568-0.445-0.662-0.668-1.429-0.668-2.301h2.793c0 1.491 0.891 2.236 2.672 2.236 0.662 0 1.178-0.133 1.549-0.399 0.371-0.272 0.557-0.65 0.557-1.132z" fill="#000"/>
		</g>
		<g id="R">
			<mask id="path-28-outside-14" x="210" y="89" width="46" height="71" fill="#000000" maskUnits="userSpaceOnUse">
				<rect x="210" y="89" width="46" height="71" fill="#fff"/>
				<path d="m243.77 90.864c-10.807 1.9056-21.426 4.7512-31.738 8.5044l21.487 59.036c6.875-2.503 13.956-4.4 21.161-5.67z"/>
			</mask>
			<path d="m243.77 90.864c-10.807 1.9056-21.426 4.7512-31.738 8.5044l21.487 59.036c6.875-2.503 13.956-4.4 21.161-5.67z" fill="#c4c4c4"/>
			<path d="m243.77 90.864c-10.807 1.9056-21.426 4.7512-31.738 8.5044l21.487 59.036c6.875-2.503 13.956-4.4 21.161-5.67z" mask="url(#path-28-outside-14)" stroke="#000" stroke-width="2"/>
			<path d="m235.64 123.06h-2.217v4.945h-2.783v-13.508h5.019c1.595 0 2.826 0.356 3.692 1.067s1.299 1.716 1.299 3.015c0 0.922-0.201 1.692-0.603 2.31-0.396 0.613-0.999 1.101-1.809 1.466l2.922 5.52v0.13h-2.987zm-2.217-2.254h2.245c0.699 0 1.24-0.176 1.624-0.529 0.383-0.359 0.575-0.85 0.575-1.475 0-0.637-0.183-1.138-0.548-1.503-0.358-0.365-0.912-0.547-1.66-0.547h-2.236z" fill="#000"/>
		</g>
		<g id="Q">
			<mask id="path-30-outside-15" x="180" y="98" width="55" height="72" fill="#000000" maskUnits="userSpaceOnUse">
				<rect x="180" y="98" width="55" height="72" fill="#fff"/>
				<path d="m212.03 99.368c-10.312 3.7531-20.276 8.4001-29.779 13.886l31.412 54.408c6.336-3.658 12.979-6.756 19.854-9.258z"/>
			</mask>
			<path d="m212.03 99.368c-10.312 3.7531-20.276 8.4001-29.779 13.886l31.412 54.408c6.336-3.658 12.979-6.756 19.854-9.258z" fill="#c4c4c4"/>
			<path d="m212.03 99.368c-10.312 3.7531-20.276 8.4001-29.779 13.886l31.412 54.408c6.336-3.658 12.979-6.756 19.854-9.258z" mask="url(#path-30-outside-15)" stroke="#000" stroke-width="2"/>
			<path d="m214.72 129.55c0 1.262-0.204 2.36-0.612 3.294-0.408 0.927-0.974 1.673-1.698 2.236l2.245 1.762-1.772 1.568-2.876-2.31c-0.328 0.056-0.668 0.084-1.02 0.084-1.12 0-2.119-0.269-2.997-0.808-0.878-0.538-1.558-1.305-2.041-2.3-0.482-1.002-0.727-2.153-0.733-3.452v-0.668c0-1.329 0.238-2.498 0.715-3.506 0.482-1.015 1.159-1.791 2.031-2.329 0.879-0.544 1.881-0.816 3.006-0.816 1.126 0 2.125 0.272 2.997 0.816 0.878 0.538 1.555 1.314 2.031 2.329 0.483 1.008 0.724 2.174 0.724 3.497zm-2.82-0.612c0-1.416-0.254-2.493-0.761-3.229s-1.231-1.104-2.171-1.104c-0.934 0-1.654 0.365-2.161 1.095-0.508 0.724-0.764 1.788-0.77 3.192v0.658c0 1.379 0.253 2.449 0.76 3.21s1.237 1.141 2.19 1.141c0.934 0 1.651-0.365 2.152-1.094 0.501-0.736 0.755-1.806 0.761-3.21z" fill="#000"/>
		</g>
		<g id="P">
			<mask id="path-32-outside-16" x="153" y="111" width="63" height="71" fill="#000000" maskUnits="userSpaceOnUse">
				<rect x="153" y="111" width="63" height="71" fill="#fff"/>
				<path d="m182.25 113.25c-9.503 5.487-18.509 11.793-26.916 18.847l40.383 48.126c5.605-4.703 11.609-8.907 17.945-12.565z"/>
			</mask>
			<path d="m182.25 113.25c-9.503 5.487-18.509 11.793-26.916 18.847l40.383 48.126c5.605-4.703 11.609-8.907 17.945-12.565z" fill="#c4c4c4"/>
			<path d="m182.25 113.25c-9.503 5.487-18.509 11.793-26.916 18.847l40.383 48.126c5.605-4.703 11.609-8.907 17.945-12.565z" mask="url(#path-32-outside-16)" stroke="#000" stroke-width="2"/>
			<path d="m183.36 145.24v4.759h-2.783v-13.508h5.269c1.015 0 1.905 0.186 2.672 0.557 0.773 0.371 1.367 0.9 1.781 1.586 0.415 0.681 0.622 1.457 0.622 2.329 0 1.323-0.455 2.369-1.364 3.136-0.903 0.76-2.155 1.141-3.757 1.141zm0-2.255h2.486c0.736 0 1.296-0.173 1.679-0.519 0.39-0.347 0.585-0.841 0.585-1.485 0-0.661-0.195-1.196-0.585-1.605-0.389-0.408-0.927-0.618-1.614-0.63h-2.551z" fill="#000"/>
		</g>
		<g id="O">
			<mask id="path-34-outside-17" x="130" y="130" width="68" height="68" fill="#000000" maskUnits="userSpaceOnUse">
				<rect x="130" y="130" width="68" height="68" fill="#fff"/>
				<path d="m155.34 132.1c-8.407 7.053-16.181 14.828-23.235 23.234l48.127 40.382c4.703-5.604 9.886-10.787 15.49-15.49z"/>
			</mask>
			<path d="m155.34 132.1c-8.407 7.053-16.181 14.828-23.235 23.234l48.127 40.382c4.703-5.604 9.886-10.787 15.49-15.49z" fill="#c4c4c4"/>
			<path d="m155.34 132.1c-8.407 7.053-16.181 14.828-23.235 23.234l48.127 40.382c4.703-5.604 9.886-10.787 15.49-15.49z" mask="url(#path-34-outside-17)" stroke="#000" stroke-width="2"/>
			<path d="m168.74 161.55c0 1.33-0.235 2.496-0.705 3.498s-1.145 1.775-2.023 2.319c-0.872 0.544-1.874 0.817-3.006 0.817-1.119 0-2.118-0.269-2.996-0.808-0.879-0.538-1.559-1.305-2.041-2.3-0.483-1.002-0.727-2.153-0.733-3.452v-0.668c0-1.329 0.238-2.498 0.714-3.506 0.483-1.015 1.16-1.791 2.032-2.329 0.878-0.544 1.88-0.816 3.006-0.816 1.125 0 2.124 0.272 2.996 0.816 0.879 0.538 1.556 1.314 2.032 2.329 0.482 1.008 0.724 2.174 0.724 3.497zm-2.821-0.612c0-1.416-0.253-2.493-0.76-3.229-0.508-0.736-1.231-1.104-2.171-1.104-0.934 0-1.655 0.365-2.162 1.095-0.507 0.724-0.764 1.788-0.77 3.192v0.658c0 1.379 0.254 2.449 0.761 3.21s1.237 1.141 2.189 1.141c0.934 0 1.652-0.365 2.153-1.094 0.501-0.736 0.754-1.806 0.76-3.21z" fill="#000"/>
		</g>
		<g id="N">
			<mask id="path-36-outside-18" x="111" y="153" width="71" height="63" fill="#000000" maskUnits="userSpaceOnUse">
				<rect x="111" y="153" width="71" height="63" fill="#fff"/>
				<path d="m132.1 155.34c-7.054 8.406-13.36 17.412-18.847 26.915l54.408 31.412c3.658-6.336 7.862-12.34 12.565-17.945z"/>
			</mask>
			<path d="m132.1 155.34c-7.054 8.406-13.36 17.412-18.847 26.915l54.408 31.412c3.658-6.336 7.862-12.34 12.565-17.945z" fill="#c4c4c4"/>
			<path d="m132.1 155.34c-7.054 8.406-13.36 17.412-18.847 26.915l54.408 31.412c3.658-6.336 7.862-12.34 12.565-17.945z" mask="url(#path-36-outside-18)" stroke="#000" stroke-width="2"/>
			<path d="m150.48 189h-2.783l-5.418-8.888v8.888h-2.783v-13.508h2.783l5.427 8.906v-8.906h2.774z" fill="#000"/>
		</g>
		<g id="M">
			<mask id="path-38-outside-19" x="98" y="180" width="72" height="55" fill="#000000" maskUnits="userSpaceOnUse">
				<rect x="98" y="180" width="72" height="55" fill="#fff"/>
				<path d="m113.25 182.25c-5.487 9.503-10.133 19.468-13.886 29.779l59.038 21.489c2.502-6.875 5.6-13.519 9.258-19.855z"/>
			</mask>
			<path d="m113.25 182.25c-5.487 9.503-10.133 19.468-13.886 29.779l59.038 21.489c2.502-6.875 5.6-13.519 9.258-19.855z" fill="#c4c4c4"/>
			<path d="m113.25 182.25c-5.487 9.503-10.133 19.468-13.886 29.779l59.038 21.489c2.502-6.875 5.6-13.519 9.258-19.855z" mask="url(#path-38-outside-19)" stroke="#000" stroke-width="2"/>
			<path d="m129.02 200.49 3.47 9.797 3.451-9.797h3.655v13.508h-2.792v-3.692l0.278-6.374-3.646 10.066h-1.911l-3.637-10.057 0.278 6.365v3.692h-2.783v-13.508z" fill="#000"/>
		</g>
		<g id="L">
			<mask id="path-40-outside-20" x="89" y="210" width="71" height="46" fill="#000000" maskUnits="userSpaceOnUse">
				<rect x="89" y="210" width="71" height="46" fill="#fff"/>
				<path d="m99.368 212.03c-3.7532 10.312-6.5988 20.932-8.5043 31.739l61.87 10.909c1.27-7.205 3.167-14.286 5.67-21.161z"/>
			</mask>
			<path d="m99.368 212.03c-3.7532 10.312-6.5988 20.932-8.5043 31.739l61.87 10.909c1.27-7.205 3.167-14.286 5.67-21.161z" fill="#c4c4c4"/>
			<path d="m99.368 212.03c-3.7532 10.312-6.5988 20.932-8.5043 31.739l61.87 10.909c1.27-7.205 3.167-14.286 5.67-21.161z" mask="url(#path-40-outside-20)" stroke="#000" stroke-width="2"/>
			<path d="m122.34 238.76h5.91v2.236h-8.693v-13.508h2.783z" fill="#000"/>
		</g>
		<g id="K">
			<mask id="path-42-outside-21" x="87" y="242" width="67" height="36" fill="#000000" maskUnits="userSpaceOnUse">
				<rect x="87" y="242" width="67" height="36" fill="#fff"/>
				<path d="m90.864 243.77c-1.9055 10.807-2.8637 21.76-2.8637 32.733h62.824c0-7.316 0.639-14.618 1.91-21.823z"/>
			</mask>
			<path d="m90.864 243.77c-1.9055 10.807-2.8637 21.76-2.8637 32.733h62.824c0-7.316 0.639-14.618 1.91-21.823z" fill="#c4c4c4"/>
			<path d="m90.864 243.77c-1.9055 10.807-2.8637 21.76-2.8637 32.733h62.824c0-7.316 0.639-14.618 1.91-21.823z" mask="url(#path-42-outside-21)" stroke="#000" stroke-width="2"/>
			<path d="m116.91 262.58-1.447 1.559v3.859h-2.783v-13.508h2.783v6.123l1.225-1.679 3.441-4.444h3.424l-4.797 6.003 4.936 7.505h-3.312z" fill="#000"/>
		</g>
		<g id="T">
			<mask id="path-44-outside-22" x="149" y="247" width="56" height="31" fill="#000000" maskUnits="userSpaceOnUse">
				<rect x="149" y="247" width="56" height="31" fill="#fff"/>
				<path d="m154.15 248.57c-2.091 9.157-3.147 18.521-3.148 27.914l50.2 7e-3c1e-3 -5.636 0.634-11.254 1.889-16.748z"/>
			</mask>
			<path d="m154.15 248.57c-2.091 9.157-3.147 18.521-3.148 27.914l50.2 7e-3c1e-3 -5.636 0.634-11.254 1.889-16.748z" fill="#c4c4c4"/>
			<path d="m154.15 248.57c-2.091 9.157-3.147 18.521-3.148 27.914l50.2 7e-3c1e-3 -5.636 0.634-11.254 1.889-16.748z" mask="url(#path-44-outside-22)" stroke="#000" stroke-width="2"/>
			<path d="m179.49 260.75h-4.138v11.253h-2.783v-11.253h-4.082v-2.255h11.003z" fill="#000"/>
		</g>
		<g id="U">
			<mask id="path-46-outside-23" x="152" y="220" width="58" height="41" fill="#000000" maskUnits="userSpaceOnUse">
				<rect x="152" y="220" width="58" height="41" fill="#fff"/>
				<path d="m163.43 222.05c-4.076 8.463-7.188 17.357-9.28 26.515l48.941 11.176c1.254-5.495 3.122-10.831 5.567-15.909z"/>
			</mask>
			<path d="m163.43 222.05c-4.076 8.463-7.188 17.357-9.28 26.515l48.941 11.176c1.254-5.495 3.122-10.831 5.567-15.909z" fill="#c4c4c4"/>
			<path d="m163.43 222.05c-4.076 8.463-7.188 17.357-9.28 26.515l48.941 11.176c1.254-5.495 3.122-10.831 5.567-15.909z" mask="url(#path-46-outside-23)" stroke="#000" stroke-width="2"/>
			<path d="m184.68 235.49v8.897c0 1.478-0.464 2.647-1.392 3.507-0.921 0.86-2.183 1.29-3.785 1.29-1.577 0-2.83-0.418-3.757-1.253-0.928-0.835-1.401-1.982-1.42-3.442v-8.999h2.783v8.916c0 0.884 0.211 1.53 0.631 1.939 0.427 0.402 1.015 0.603 1.763 0.603 1.565 0 2.36-0.823 2.384-2.468v-8.99z" fill="#000"/>
		</g>
		<g id="V">
			<mask id="path-48-outside-24" x="162" y="196" width="58" height="50" fill="#000000" maskUnits="userSpaceOnUse">
				<rect x="162" y="196" width="58" height="50" fill="#fff"/>
				<path d="m178.38 198.25c-5.857 7.344-10.871 15.322-14.947 23.785l45.226 21.786c2.446-5.078 5.454-9.865 8.969-14.271z"/>
			</mask>
			<path d="m178.38 198.25c-5.857 7.344-10.871 15.322-14.947 23.785l45.226 21.786c2.446-5.078 5.454-9.865 8.969-14.271z" fill="#c4c4c4"/>
			<path d="m178.38 198.25c-5.857 7.344-10.871 15.322-14.947 23.785l45.226 21.786c2.446-5.078 5.454-9.865 8.969-14.271z" mask="url(#path-48-outside-24)" stroke="#000" stroke-width="2"/>
			<path d="m189.48 225.65 3.062-10.159h3.099l-4.704 13.508h-2.904l-4.685-13.508h3.089z" fill="#000"/>
		</g>
		<g id="W">
			<mask id="path-50-outside-25" x="176" y="176" width="55" height="55" fill="#000000" maskUnits="userSpaceOnUse">
				<rect x="176" y="176" width="55" height="55" fill="#fff"/>
				<path d="m198.25 178.38c-7.344 5.856-14.008 12.519-19.865 19.862l39.245 31.303c3.514-4.406 7.512-8.403 11.919-11.917z"/>
			</mask>
			<path d="m198.25 178.38c-7.344 5.856-14.008 12.519-19.865 19.862l39.245 31.303c3.514-4.406 7.512-8.403 11.919-11.917z" fill="#c4c4c4"/>
			<path d="m198.25 178.38c-7.344 5.856-14.008 12.519-19.865 19.862l39.245 31.303c3.514-4.406 7.512-8.403 11.919-11.917z" mask="url(#path-50-outside-25)" stroke="#000" stroke-width="2"/>
			<path d="m206.91 207.1 1.818-9.612h2.774l-2.996 13.508h-2.802l-2.199-9.036-2.198 9.036h-2.802l-2.997-13.508h2.774l1.828 9.593 2.226-9.593h2.357z" fill="#000"/>
		</g>
		<g id="X">
			<mask id="path-52-outside-26" x="196" y="162" width="50" height="58" fill="#000000" maskUnits="userSpaceOnUse">
				<rect x="196" y="162" width="50" height="58" fill="#fff"/>
				<path d="m222.05 163.43c-8.463 4.076-16.442 9.089-23.787 14.945l31.296 39.251c4.407-3.514 9.194-6.522 14.272-8.967z"/>
			</mask>
			<path d="m222.05 163.43c-8.463 4.076-16.442 9.089-23.787 14.945l31.296 39.251c4.407-3.514 9.194-6.522 14.272-8.967z" fill="#c4c4c4"/>
			<path d="m222.05 163.43c-8.463 4.076-16.442 9.089-23.787 14.945l31.296 39.251c4.407-3.514 9.194-6.522 14.272-8.967z" mask="url(#path-52-outside-26)" stroke="#000" stroke-width="2"/>
			<path d="m222.5 187.15 2.533-4.657h3.2l-3.933 6.698 4.035 6.81h-3.237l-2.598-4.731-2.598 4.731h-3.237l4.035-6.81-3.933-6.698h3.2z" fill="#000"/>
		</g>
		<g id="Y">
			<mask id="path-54-outside-27" x="220" y="152" width="41" height="58" fill="#000000" maskUnits="userSpaceOnUse">
				<rect x="220" y="152" width="41" height="58" fill="#fff"/>
				<path d="m248.57 154.15c-9.158 2.091-18.052 5.202-26.516 9.277l21.777 45.231c5.078-2.445 10.415-4.312 15.909-5.566z"/>
			</mask>
			<path d="m248.57 154.15c-9.158 2.091-18.052 5.202-26.516 9.277l21.777 45.231c5.078-2.445 10.415-4.312 15.909-5.566z" fill="#c4c4c4"/>
			<path d="m248.57 154.15c-9.158 2.091-18.052 5.202-26.516 9.277l21.777 45.231c5.078-2.445 10.415-4.312 15.909-5.566z" mask="url(#path-54-outside-27)" stroke="#000" stroke-width="2"/>
			<path d="m241.99 178.58 2.811-6.086h3.043l-4.435 8.61v4.898h-2.829v-4.898l-4.435-8.61h3.052z" fill="#000"/>
		</g>
		<g id="Z">
			<mask id="path-56-outside-28" x="247" y="150" width="31" height="55" fill="#000000" maskUnits="userSpaceOnUse">
				<rect x="247" y="150" width="31" height="55" fill="#fff"/>
				<path d="m276.5 151c-9.393 0-18.757 1.055-27.915 3.144l11.166 48.942c5.495-1.253 11.113-1.886 16.749-1.886z"/>
			</mask>
			<path d="m276.5 151c-9.393 0-18.757 1.055-27.915 3.144l11.166 48.942c5.495-1.253 11.113-1.886 16.749-1.886z" fill="#c4c4c4"/>
			<path d="m276.5 151c-9.393 0-18.757 1.055-27.915 3.144l11.166 48.942c5.495-1.253 11.113-1.886 16.749-1.886z" mask="url(#path-56-outside-28)" stroke="#000" stroke-width="2"/>
			<path d="m264.4 177.76h6.81v2.236h-10.289v-1.633l6.68-9.62h-6.671v-2.255h10.131v1.596z" fill="#000"/>
		</g>
	</g>
</svg>
